<svg width="38" height="28" viewBox="0 0 38 28" fill="none" xmlns="http://www.w3.org/2000/svg">
<path fill-rule="evenodd" clip-rule="evenodd" d="M32.1035 0.423902C31.9691 0.191198 31.7213 0.0473492 31.4526 0.0461014L21.5255 8.18363e-06C21.253 -0.00125702 21.001 0.14426 20.8658 0.380851L16.051 8.80987C15.9158 9.04647 15.6638 9.19198 15.3913 9.19072L5.68279 9.14564C5.4103 9.14437 5.15824 9.28989 5.02309 9.52648L0.0994947 18.1459C-0.033786 18.3792 -0.0331208 18.6657 0.101242 18.8984L5.11171 27.5761C5.24607 27.8088 5.49391 27.9527 5.76264 27.9539L15.6897 28C15.9622 28.0013 16.2142 27.8557 16.3494 27.6191L21.1642 19.1901C21.2994 18.9535 21.5514 18.808 21.8239 18.8093L31.5324 18.8544C31.8049 18.8556 32.057 18.7101 32.1921 18.4735L37.1157 9.85413C37.249 9.6208 37.2483 9.33426 37.1139 9.10155L32.1035 0.423902Z" fill="url(#paint0_linear_1478_8808)"/>
<defs>
<linearGradient id="paint0_linear_1478_8808" x1="18.6076" y1="0" x2="18.6076" y2="38.0986" gradientUnits="userSpaceOnUse">
<stop stop-color="#7058FF"/>
<stop offset="1" stop-color="#E230FF"/>
<stop offset="1" stop-color="#E230FF"/>
</linearGradient>
</defs>
</svg>
